<?xml version="1.0" encoding="utf-8"?>
<!-- Generator: Adobe Illustrator 18.0.0, SVG Export Plug-In . SVG Version: 6.00 Build 0)  -->
<!DOCTYPE svg PUBLIC "-//W3C//DTD SVG 1.1//EN" "http://www.w3.org/Graphics/SVG/1.1/DTD/svg11.dtd">
<svg version="1.1" id="Layer_1" xmlns="http://www.w3.org/2000/svg" xmlns:xlink="http://www.w3.org/1999/xlink" x="0px" y="0px"
	 viewBox="0 0 900 900" enable-background="new 0 0 900 900" xml:space="preserve">
<g>
	<path fill="#BCBCBC" d="M899.9,450.6c0,115.1,0.2,230.1-0.1,345.2c-0.1,42.3-20,73.2-56.9,93.2c-13.8,7.5-28.8,11-44.6,11
		c-232.2,0-464.5,0-696.7,0c-47.2,0-89.8-35.3-99.2-82.1c-1.5-7.5-2.4-15.3-2.4-23C0,565,0,335.1,0,105.2c0-51.3,34.3-93,84.4-103.2
		c6.4-1.3,13-1.9,19.5-1.9C334.8,0,565.7,0,796.5,0.1c51.7,0,95.3,38.1,102.7,89.2c0.8,5.5,0.8,11.2,0.8,16.8
		C900,220.9,899.9,335.8,899.9,450.6z M718.4,381.2c31.8,130-29.9,243.2-114.4,299.3c-90.8,60.3-208.6,62.4-300.9,4.3
		c-46.2-29.1-81.1-68.4-104.1-118c-27.6-59.6-32.8-121.5-16.9-185.5c-26.1,0-51.7,0-78.2,0c0,3.3,0,6.3,0,9.3
		c0,121.6,0,243.2,0,364.9c0,2.1,0,4.2,0,6.3c0.7,19.7,15,33.9,34.6,34.3c2.1,0.1,4.2,0,6.3,0c203.6,0,407.3,0,610.9,0
		c2.8,0,5.6,0.1,8.4-0.1c2.3-0.2,4.7-0.5,6.9-1.1c12.7-3.3,25.4-15.2,25.4-36.1c-0.2-123.5-0.1-247-0.1-370.5c0-2.3,0-4.5,0-7.1
		C769.9,381.2,744.4,381.2,718.4,381.2z M277,450.4c0.2,95.7,77.6,172.8,173.4,172.7c95.8-0.1,172.9-77.4,172.8-173.2
		C623,354.2,545.5,276.9,449.9,277C354.4,277.1,276.8,355,277,450.4z M709.2,277c16.6,0,33.3,0,49.9,0c0.2,0,0.5,0,0.7,0
		c18.8,1.2,36.6-13.6,36.6-35.9c-0.1-33.7,0.1-67.4-0.1-101.2c-0.1-21.6-14.9-35.9-36.5-36c-33.5-0.1-67-0.1-100.5,0
		c-21.2,0.1-35.9,14.4-36.1,35.6c-0.3,34,0,67.9-0.1,101.9c0,23,19.1,36.3,36.2,35.7C676,276.5,692.6,277,709.2,277z"/>
</g>
</svg>
