<?xml version="1.0" encoding="UTF-8" standalone="no"?>
<!-- Generator: Adobe Illustrator 18.0.0, SVG Export Plug-In . SVG Version: 6.00 Build 0)  -->

<svg
   xmlns:dc="http://purl.org/dc/elements/1.1/"
   xmlns:cc="http://creativecommons.org/ns#"
   xmlns:rdf="http://www.w3.org/1999/02/22-rdf-syntax-ns#"
   xmlns:svg="http://www.w3.org/2000/svg"
   xmlns="http://www.w3.org/2000/svg"
   xmlns:sodipodi="http://sodipodi.sourceforge.net/DTD/sodipodi-0.dtd"
   xmlns:inkscape="http://www.inkscape.org/namespaces/inkscape"
   version="1.1"
   id="Layer_1"
   x="0px"
   y="0px"
   viewBox="0 0 887.40002 81.515038"
   enable-background="new 0 0 900 900"
   xml:space="preserve"
   inkscape:version="0.91 r13725"
   sodipodi:docname="logo.svg"
   width="887.40002"
   height="81.515038"><metadata
     id="metadata3498"><rdf:RDF><cc:Work
         rdf:about=""><dc:format>image/svg+xml</dc:format><dc:type
           rdf:resource="http://purl.org/dc/dcmitype/StillImage" /><dc:title></dc:title></cc:Work></rdf:RDF></metadata><defs
     id="defs3496" /><sodipodi:namedview
     pagecolor="#ffffff"
     bordercolor="#666666"
     borderopacity="1"
     objecttolerance="10"
     gridtolerance="10"
     guidetolerance="10"
     inkscape:pageopacity="0"
     inkscape:pageshadow="2"
     inkscape:window-width="1855"
     inkscape:window-height="1056"
     id="namedview3494"
     showgrid="false"
     fit-margin-top="0"
     fit-margin-left="0"
     fit-margin-right="0"
     fit-margin-bottom="0"
     inkscape:zoom="1.0211111"
     inkscape:cx="443.7"
     inkscape:cy="40.815038"
     inkscape:window-x="65"
     inkscape:window-y="24"
     inkscape:window-maximized="1"
     inkscape:current-layer="Layer_1" /><g
     id="g3478"
     transform="translate(-6.3,-409.3)"><path
       d="m 39.9,480.3 c -1.8,4.9 -7.7,10 -14.6,10 -8.2,0 -13.2,-3.5 -13.2,-16.7 l 0,-33.8 -5.4,0 -0.4,-2.1 5.8,0 0,-14.1 11.6,-1.8 0,16 13,0 -0.4,2 -12.6,0 0,33.4 c 0,7.5 2.8,10.5 8.2,10.5 3.2,0 5.7,-2.3 6.5,-4.3 l 1.5,0.9 z"
       id="path3480"
       inkscape:connector-curvature="0"
       style="fill:#546e7a" /><path
       d="m 132,489.2 -20.5,0 0,-1.6 c 4.1,-1.2 4.4,-4.6 4.4,-10.2 l 0,-22 c 0,-7.1 -3.3,-10.8 -10.3,-10.8 -4.1,0 -8.1,3.6 -10.2,7.7 l 0,25.2 c 0,6 0.6,9.1 4.5,10.1 l 0,1.8 -20.4,0 0,-1.8 c 4.1,-1.2 4.4,-4.5 4.4,-10.1 l 0,-57.6 c 0,-2.8 -1,-4.2 -5.5,-5.4 l 0,-1.3 17.1,-3.9 0,40.6 c 2,-6 10.6,-12.2 17.6,-12.2 8.9,0 14.4,4.1 14.4,17.3 l 0,22.5 c 0,6 0.6,9.2 4.5,10.2 l 0,1.5 0,0 z"
       id="path3482"
       inkscape:connector-curvature="0"
       style="fill:#546e7a" /><path
       d="m 215.9,476.1 c -1.4,5.3 -7.8,14.1 -21.6,14.1 -13.9,0 -23.8,-12.2 -23.8,-25.9 0,-15.7 10.4,-26.6 24.8,-26.6 14.4,0 22.3,7.9 22.3,25.2 l -34.8,0 c 0.6,12.7 6.7,18.6 14.6,19.8 6.3,1 14.6,-2.1 16.9,-7.3 l 1.6,0.7 z m -9.7,-14.8 c 0,-14.9 -5.8,-22 -11.4,-22 -6.3,0 -12,9.8 -12,22 l 23.4,0 z"
       id="path3484"
       inkscape:connector-curvature="0"
       style="fill:#546e7a" /><path
       d="m 406.5,469.1 3.3,0 c -0.2,0.4 -0.5,1 -0.8,1.8 -1.3,2.5 -2.7,4.6 -4.3,6.5 -7.3,8.9 -16.9,13.4 -29,13.4 -7.7,0 -14.9,-1.8 -21.4,-5.3 -6.8,-3.7 -12,-8.4 -15.7,-14.3 -3.9,-6 -5.8,-12.4 -5.8,-19.4 0,-4.4 0.8,-8.6 2.3,-12.4 1.5,-4 3.7,-7.9 6.6,-11.6 3.6,-3.9 7,-6.8 10.4,-9 5.8,-3.8 12.5,-5.7 20.2,-5.7 2.5,0 5,0.2 7.3,0.6 2,0.3 4.1,1 6.5,2.1 2.1,1.1 4.2,2.3 6.3,3.9 2.6,1.6 4.4,2.4 5.5,2.4 1.3,0 2.5,-0.6 3.7,-1.7 1.3,-1.1 3,-3.2 5.1,-6 l 3.1,0 0,26.6 -3.3,0 c -2.4,-4.6 -5.6,-8.9 -9.5,-12.7 -3.4,-3.5 -7.3,-6.5 -11.6,-9 -3.1,-1.8 -7.1,-2.7 -12.2,-2.7 -5.1,0 -9.1,1.3 -12.3,4.1 -3.2,2.6 -5.4,6.8 -6.9,12.4 -1.5,5.6 -2.3,12 -2.3,19.5 0,5.2 0.4,9.7 1.2,13.6 0.5,2.1 0.9,3.7 1.3,4.9 0.4,1.2 0.9,2.6 1.8,4.4 0.8,1.8 2,3.4 3.3,4.8 1.3,1.3 3,2.5 4.9,3.6 3.7,1.9 8,2.8 12.8,2.8 2.9,0 6.1,-0.4 9.8,-1.3 3.1,-1.1 5.9,-2.3 8.4,-3.8 2.5,-1.6 5.1,-3.7 7.5,-6.3 0.8,-1.2 2.1,-3.2 3.8,-6.2 z"
       id="path3486"
       inkscape:connector-curvature="0"
       style="fill:#546e7a" /><path
       d="m 531,413.2 c 14.3,0 25.7,4.4 34.2,13.1 7.6,7.6 11.4,16.2 11.4,25.9 0.1,6.8 -1.8,13.2 -5.8,19.2 -4.1,6 -9.6,10.8 -16.5,14.3 -7,3.5 -14.4,5.3 -22.4,5.1 -8.1,0.1 -15.7,-1.5 -22.6,-5.1 -7,-3.5 -12.5,-8.3 -16.6,-14.3 -4.1,-6 -6,-12.4 -6,-19.4 -0.1,-6.8 1.8,-13.2 5.9,-19.3 4.1,-6.1 9.6,-10.9 16.5,-14.5 7,-3.5 14.3,-5.2 21.9,-5 z m 1.5,3.1 c -6.9,0 -12.4,2.1 -16.5,6.3 -6.7,6.8 -10.1,16.6 -10.1,29.5 0,10.8 2.3,19.3 7,25.9 4.4,6.1 10.2,9.4 17.4,9.7 7.8,0.4 15.6,-3.2 20.2,-9.5 4.8,-6.5 7.2,-15.4 7.2,-26.6 0,-7.4 -1.3,-13.9 -3.8,-19.5 -2.5,-5.6 -6,-9.8 -10.7,-12.5 -3.3,-2.2 -7,-3.3 -10.7,-3.3 z"
       id="path3488"
       inkscape:connector-curvature="0"
       style="fill:#546e7a" /><path
       d="m 739.6,486.1 0,3.2 -43.1,0 0,-3.2 8.1,0 c 0.8,0 1.6,-0.4 2.3,-0.8 0.8,-0.5 1.3,-0.9 1.5,-1.4 0.6,-1.1 0.6,-2.1 0.7,-2.9 0.1,-0.4 -0.1,-1.2 -0.1,-1.8 -0.1,-0.6 -0.2,-1.3 -0.5,-2.1 -0.3,-0.8 -0.5,-1.5 -0.6,-2 -0.2,-0.5 -0.5,-1.2 -0.8,-2.1 -0.4,-0.8 -0.6,-1.5 -0.8,-1.9 -0.2,-0.4 -2.3,-4.4 -2.5,-5.1 l -31.6,0 c -1.2,2.6 -2.1,4.8 -2.9,6.3 -0.8,2 -1.1,3.8 -1,5.6 0.1,1.7 0.6,3.1 1.3,4.2 1.5,2.5 3.4,3.9 5.5,3.9 l 3.9,0 0,3.2 -30.3,0 0,-3.2 4.3,0 c 3.9,0 7.9,-4.4 12.2,-12.8 11.2,-24.2 18.4,-39.4 21.4,-45.8 -0.9,-1.7 -1.5,-3 -2.1,-3.7 -0.5,-0.8 -1.3,-1.8 -2.2,-2.9 -0.9,-1.1 -2,-2 -3.1,-2.5 -1.1,-0.5 -2.4,-0.8 -3.9,-0.8 l -2.5,0 0,-3.2 23.9,0 26.3,59.1 c 2.5,5.1 4.4,8.4 5.6,9.8 2,1.8 4.2,2.7 6.5,2.7 l 4.5,0.2 0,0 z m -51.4,-54.9 c -1.6,3.5 -4.1,8.9 -7.5,16.4 -3.4,7.4 -5.8,12.5 -7,15.3 l 28.7,0 c -0.1,-0.1 -0.4,-0.9 -1.1,-2.5 -0.6,-1.5 -1.3,-3 -1.8,-4.2 -1.2,-2.7 -2.5,-5.9 -4.2,-9.6 -1.6,-3.7 -3,-6.8 -4.1,-9.2 -1.2,-2.4 -2.1,-4.5 -3,-6.2 z"
       id="path3490"
       inkscape:connector-curvature="0"
       style="fill:#546e7a" /><path
       d="m 822.8,489.2 54.7,0 0,-3.2 -5.4,0 c -0.2,0 -0.4,0 -0.6,0 -4.3,-0.1 -7.5,-1 -9.6,-2.8 -2.2,-1.8 -3.9,-4.9 -3.9,-9.3 l 0,-56.5 2.7,0 c 15.5,0 25,7.4 28.3,22.2 l 0,0 4.7,0 0,-25.3 -87.2,0 0,25.3 4.7,0 0,0 c 3.4,-14.8 12.8,-22.2 28.3,-22.2 l 2.7,0 0,56.6 c 0,4.3 -1.8,7.4 -3.9,9.3 -2.1,1.8 -5.3,2.7 -9.6,2.8 -0.2,0 -0.4,0 -0.6,0 l -5.4,0 0.1,3.1 0,0 z"
       id="path3492"
       inkscape:connector-curvature="0"
       style="fill:#546e7a" /></g></svg>