<?xml version="1.0" encoding="utf-8"?>
<!-- Generator: Adobe Illustrator 18.0.0, SVG Export Plug-In . SVG Version: 6.00 Build 0)  -->
<!DOCTYPE svg PUBLIC "-//W3C//DTD SVG 1.1//EN" "http://www.w3.org/Graphics/SVG/1.1/DTD/svg11.dtd">
<svg version="1.1" id="Layer_1" xmlns="http://www.w3.org/2000/svg" xmlns:xlink="http://www.w3.org/1999/xlink" x="0px" y="0px"
	 viewBox="0 0 900 900" enable-background="new 0 0 900 900" xml:space="preserve">
<g>
	<path fill="#546E7A" d="M39.9,480.3c-1.8,4.9-7.7,10-14.6,10c-8.2,0-13.2-3.5-13.2-16.7v-33.8H6.7l-0.4-2.1h5.8v-14.1l11.6-1.8v16
		h13l-0.4,2H23.7v33.4c0,7.5,2.8,10.5,8.2,10.5c3.2,0,5.7-2.3,6.5-4.3L39.9,480.3z"/>
	<path fill="#546E7A" d="M132,489.2h-20.5v-1.6c4.1-1.2,4.4-4.6,4.4-10.2v-22c0-7.1-3.3-10.8-10.3-10.8c-4.1,0-8.1,3.6-10.2,7.7
		v25.2c0,6,0.6,9.1,4.5,10.1v1.8H79.5v-1.8c4.1-1.2,4.4-4.5,4.4-10.1v-57.6c0-2.8-1-4.2-5.5-5.4v-1.3l17.1-3.9v40.6
		c2-6,10.6-12.2,17.6-12.2c8.9,0,14.4,4.1,14.4,17.3v22.5c0,6,0.6,9.2,4.5,10.2L132,489.2L132,489.2z"/>
	<path fill="#546E7A" d="M215.9,476.1c-1.4,5.3-7.8,14.1-21.6,14.1c-13.9,0-23.8-12.2-23.8-25.9c0-15.7,10.4-26.6,24.8-26.6
		s22.3,7.9,22.3,25.2h-34.8c0.6,12.7,6.7,18.6,14.6,19.8c6.3,1,14.6-2.1,16.9-7.3L215.9,476.1z M206.2,461.3c0-14.9-5.8-22-11.4-22
		c-6.3,0-12,9.8-12,22H206.2z"/>
	<path fill="#546E7A" d="M406.5,469.1h3.3c-0.2,0.4-0.5,1-0.8,1.8c-1.3,2.5-2.7,4.6-4.3,6.5c-7.3,8.9-16.9,13.4-29,13.4
		c-7.7,0-14.9-1.8-21.4-5.3c-6.8-3.7-12-8.4-15.7-14.3c-3.9-6-5.8-12.4-5.8-19.4c0-4.4,0.8-8.6,2.3-12.4c1.5-4,3.7-7.9,6.6-11.6
		c3.6-3.9,7-6.8,10.4-9c5.8-3.8,12.5-5.7,20.2-5.7c2.5,0,5,0.2,7.3,0.6c2,0.3,4.1,1,6.5,2.1c2.1,1.1,4.2,2.3,6.3,3.9
		c2.6,1.6,4.4,2.4,5.5,2.4c1.3,0,2.5-0.6,3.7-1.7c1.3-1.1,3-3.2,5.1-6h3.1V441h-3.3c-2.4-4.6-5.6-8.9-9.5-12.7
		c-3.4-3.5-7.3-6.5-11.6-9c-3.1-1.8-7.1-2.7-12.2-2.7c-5.1,0-9.1,1.3-12.3,4.1c-3.2,2.6-5.4,6.8-6.9,12.4c-1.5,5.6-2.3,12-2.3,19.5
		c0,5.2,0.4,9.7,1.2,13.6c0.5,2.1,0.9,3.7,1.3,4.9s0.9,2.6,1.8,4.4c0.8,1.8,2,3.4,3.3,4.8c1.3,1.3,3,2.5,4.9,3.6
		c3.7,1.9,8,2.8,12.8,2.8c2.9,0,6.1-0.4,9.8-1.3c3.1-1.1,5.9-2.3,8.4-3.8c2.5-1.6,5.1-3.7,7.5-6.3
		C403.5,474.1,404.8,472.1,406.5,469.1z"/>
	<path fill="#546E7A" d="M531,413.2c14.3,0,25.7,4.4,34.2,13.1c7.6,7.6,11.4,16.2,11.4,25.9c0.1,6.8-1.8,13.2-5.8,19.2
		c-4.1,6-9.6,10.8-16.5,14.3c-7,3.5-14.4,5.3-22.4,5.1c-8.1,0.1-15.7-1.5-22.6-5.1c-7-3.5-12.5-8.3-16.6-14.3s-6-12.4-6-19.4
		c-0.1-6.8,1.8-13.2,5.9-19.3s9.6-10.9,16.5-14.5C516.1,414.7,523.4,413,531,413.2z M532.5,416.3c-6.9,0-12.4,2.1-16.5,6.3
		c-6.7,6.8-10.1,16.6-10.1,29.5c0,10.8,2.3,19.3,7,25.9c4.4,6.1,10.2,9.4,17.4,9.7c7.8,0.4,15.6-3.2,20.2-9.5
		c4.8-6.5,7.2-15.4,7.2-26.6c0-7.4-1.3-13.9-3.8-19.5s-6-9.8-10.7-12.5C539.9,417.4,536.2,416.3,532.5,416.3z"/>
	<path fill="#546E7A" d="M739.6,486.1v3.2h-43.1v-3.2h8.1c0.8,0,1.6-0.4,2.3-0.8c0.8-0.5,1.3-0.9,1.5-1.4c0.6-1.1,0.6-2.1,0.7-2.9
		c0.1-0.4-0.1-1.2-0.1-1.8c-0.1-0.6-0.2-1.3-0.5-2.1c-0.3-0.8-0.5-1.5-0.6-2c-0.2-0.5-0.5-1.2-0.8-2.1c-0.4-0.8-0.6-1.5-0.8-1.9
		c-0.2-0.4-2.3-4.4-2.5-5.1h-31.6c-1.2,2.6-2.1,4.8-2.9,6.3c-0.8,2-1.1,3.8-1,5.6c0.1,1.7,0.6,3.1,1.3,4.2c1.5,2.5,3.4,3.9,5.5,3.9
		h3.9v3.2h-30.3V486h4.3c3.9,0,7.9-4.4,12.2-12.8c11.2-24.2,18.4-39.4,21.4-45.8c-0.9-1.7-1.5-3-2.1-3.7c-0.5-0.8-1.3-1.8-2.2-2.9
		c-0.9-1.1-2-2-3.1-2.5c-1.1-0.5-2.4-0.8-3.9-0.8h-2.5v-3.2h23.9l26.3,59.1c2.5,5.1,4.4,8.4,5.6,9.8c2,1.8,4.2,2.7,6.5,2.7
		L739.6,486.1L739.6,486.1z M688.2,431.2c-1.6,3.5-4.1,8.9-7.5,16.4c-3.4,7.4-5.8,12.5-7,15.3h28.7c-0.1-0.1-0.4-0.9-1.1-2.5
		c-0.6-1.5-1.3-3-1.8-4.2c-1.2-2.7-2.5-5.9-4.2-9.6c-1.6-3.7-3-6.8-4.1-9.2C690,435,689.1,432.9,688.2,431.2z"/>
	<path fill="#546E7A" d="M822.8,489.2h54.7v-3.2h-5.4c-0.2,0-0.4,0-0.6,0c-4.3-0.1-7.5-1-9.6-2.8c-2.2-1.8-3.9-4.9-3.9-9.3v-56.5
		h2.7c15.5,0,25,7.4,28.3,22.2l0,0h4.7v-25.3h-87.2v25.3h4.7l0,0c3.4-14.8,12.8-22.2,28.3-22.2h2.7V474c0,4.3-1.8,7.4-3.9,9.3
		c-2.1,1.8-5.3,2.7-9.6,2.8c-0.2,0-0.4,0-0.6,0h-5.4L822.8,489.2L822.8,489.2z"/>
</g>
</svg>
