<?xml version="1.0" encoding="utf-8"?>
<!-- Generator: Adobe Illustrator 20.0.0, SVG Export Plug-In . SVG Version: 6.00 Build 0)  -->
<svg version="1.1" id="Layer_1" xmlns="http://www.w3.org/2000/svg" xmlns:xlink="http://www.w3.org/1999/xlink" x="0px" y="0px"
	 viewBox="0 0 900 900" style="enable-background:new 0 0 900 900;" xml:space="preserve">
<style type="text/css">
	.st0{fill:#1E1E1E;}
</style>
<g>
	<path class="st0" d="M283.1,815.7c339.7,0,525.4-281.5,525.4-525.5c0-8-0.1-15.9-0.5-23.8c36.1-26,67.4-58.7,92.1-95.6
		c-33.1,14.7-68.7,24.6-106,29.1c38.1-22.9,67.3-59.1,81.2-102.1c-35.6,21.1-75.2,36.6-117.3,44.9c-33.8-35.9-81.6-58.4-134.8-58.4
		c-102,0-184.6,82.7-184.6,184.6c0,14.5,1.6,28.5,4.7,42.2c-153.4-7.8-289.6-81.3-380.6-193c-15.8,27.3-25,58.9-25,92.8
		c0,64.1,32.6,120.6,82.2,153.7c-30.3-1-58.8-9.3-83.7-23.1c0,0.8,0,1.6,0,2.4c0,89.5,63.7,164.1,148.1,181
		c-15.4,4.2-31.8,6.5-48.6,6.5c-11.9,0-23.5-1.2-34.7-3.4c23.6,73.5,91.7,126.8,172.5,128.3c-63.2,49.6-142.8,79.1-229.3,79.1
		c-14.9,0-29.5-0.9-44-2.6C81.7,785.2,178.7,815.7,283.1,815.7"/>
</g>
</svg>
