<?xml version="1.0" encoding="utf-8"?>
<!-- Generator: Adobe Illustrator 20.0.0, SVG Export Plug-In . SVG Version: 6.00 Build 0)  -->
<svg version="1.1" id="Layer_1" xmlns="http://www.w3.org/2000/svg" xmlns:xlink="http://www.w3.org/1999/xlink" x="0px" y="0px"
	 viewBox="0 0 900 900" style="enable-background:new 0 0 900 900;" xml:space="preserve">
<style type="text/css">
	.st0{fill:#1E1E1E;}
</style>
<g>
	<path class="st0" d="M715.2,0H184.9C82.8,0,0,82.8,0,184.9v530.3C0,817.3,82.8,900,184.9,900H488V542H365V403.5h123v-97.9h0
		c0.5-93.8,34.5-125.8,34.5-125.8c49.9-64.8,128.1-62.9,128.1-62.9h21.3H775v130.5h-83c-57-1-61.9,47.2-62.2,58.2h0v97.9h139
		l-17,138.6h-122v358h85.3C817.2,900,900,817.3,900,715.1V184.9C900,82.8,817.2,0,715.2,0z"/>
</g>
</svg>
