<?xml version="1.0" encoding="utf-8"?>
<!-- Generator: Adobe Illustrator 18.0.0, SVG Export Plug-In . SVG Version: 6.00 Build 0)  -->
<!DOCTYPE svg PUBLIC "-//W3C//DTD SVG 1.1//EN" "http://www.w3.org/Graphics/SVG/1.1/DTD/svg11.dtd">
<svg version="1.1" id="Layer_1" xmlns="http://www.w3.org/2000/svg" xmlns:xlink="http://www.w3.org/1999/xlink" x="0px" y="0px"
	 viewBox="0 0 900 900" enable-background="new 0 0 900 900" xml:space="preserve">
<g>
	<path fill="#333333" d="M450,55.4c217.6,0,394.6,177,394.6,394.6S667.6,844.6,450,844.6S55.4,667.6,55.4,450S232.4,55.4,450,55.4
		 M450,0C201.5,0,0,201.5,0,450s201.5,450,450,450s450-201.5,450-450S698.5,0,450,0L450,0z"/>
	<g>
		
			<rect x="398.1" y="242.3" transform="matrix(-0.7071 -0.7071 0.7071 -0.7071 450.1335 1086.4368)" fill="#333333" width="103.9" height="415.4"/>
		
			<rect x="398.1" y="242.4" transform="matrix(0.7071 -0.7071 0.7071 0.7071 -186.4459 450.0278)" fill="#333333" width="103.9" height="415.4"/>
	</g>
</g>
</svg>
