<?xml version="1.0" encoding="utf-8"?>
<!-- Generator: Adobe Illustrator 18.0.0, SVG Export Plug-In . SVG Version: 6.00 Build 0)  -->
<!DOCTYPE svg PUBLIC "-//W3C//DTD SVG 1.1//EN" "http://www.w3.org/Graphics/SVG/1.1/DTD/svg11.dtd">
<svg version="1.1" id="Layer_1" xmlns="http://www.w3.org/2000/svg" xmlns:xlink="http://www.w3.org/1999/xlink" x="0px" y="0px"
	 viewBox="0 0 900 900" enable-background="new 0 0 900 900" xml:space="preserve">
<path fill="#ffffff" d="M899.9,106.1c0-5.6,0-11.3-0.8-16.8c-7.4-51.1-51-89.2-102.7-89.2C565.7,0,334.8,0,104,0.1
	c-6.5,0-13.2,0.6-19.5,1.9C34.3,12.2,0.1,53.9,0.1,105.2C0,335.1,0,565,0.1,794.8c0,7.7,0.8,15.5,2.4,23c9.4,46.8,52,82.1,99.2,82.1
	c126.2,0,252.4,0,378.6,0c0-110.4,0-243.7,0-348.6c-39,0-77.5,0-116.2,0c0-45.5,0-90.1,0-135.6c38.9,0,77.5,0,116.7,0
	c0-3.3,0-5.8,0-8.4c0-31.4-0.1-62.8,0.1-94.2c0.1-20.5,2.5-40.7,8.1-60.4c13.2-46.3,40.6-80.7,84.9-100.7
	c22.7-10.2,46.8-15.1,71.6-15.8c36.3-0.9,72.6,1,108.8,4.3c2,0.2,3.9,0.8,5.7,1.2c1.3,16.2,0.8,115.3-0.8,121c-2.4,0-5,0-7.5,0
	c-22.3,0-44.5,0-66.8,0.1c-10.8,0.1-21.5,1.5-31.7,5.2c-14.2,5.1-24,14.7-27.9,29.3c-2.2,8.3-3.7,17-3.9,25.6
	c-0.5,29.1-0.2,58.1-0.2,87.2c0,1.8,0.4,3.5,0.7,5.9c44.7,0,88.9,0,133.7,0c-5.9,45.5-11.6,90.2-17.5,135.6c-39.3,0-77.8,0-116.7,0
	c0,104.8,0,237.9,0,348.3c59,0,117.9,0,176.9,0c15.8,0,30.8-3.5,44.6-11c36.9-20,56.8-50.9,56.9-93.2c0.3-115.1,0.1-230.1,0.1-345.2
	C899.9,335.8,900,220.9,899.9,106.1z"/>
</svg>
