<?xml version="1.0" encoding="utf-8"?>
<!-- Generator: Adobe Illustrator 20.0.0, SVG Export Plug-In . SVG Version: 6.00 Build 0)  -->
<svg version="1.1" id="Layer_1" xmlns="http://www.w3.org/2000/svg" xmlns:xlink="http://www.w3.org/1999/xlink" x="0px" y="0px"
	 viewBox="0 0 900 90" style="enable-background:new 0 0 900 90;" xml:space="preserve">
<style type="text/css">
	.st0{fill:#FFFFFF;}
</style>
<g>
	<path class="st0" d="M34.1,75.7c-1.8,5-7.8,10.1-14.8,10.1c-8.3,0-13.4-3.5-13.4-16.9V34.6H0.4L0,32.5h5.9V18.2l11.8-1.8v16.2h13.2
		l-0.4,2H17.6v33.9c0,7.6,2.8,10.6,8.3,10.6c3.2,0,5.8-2.3,6.6-4.4L34.1,75.7z"/>
	<path class="st0" d="M127.5,84.7h-20.8v-1.6c4.2-1.2,4.5-4.7,4.5-10.3V50.4c0-7.2-3.3-11-10.4-11c-4.2,0-8.2,3.7-10.3,7.8v25.6
		c0,6.1,0.6,9.2,4.6,10.2v1.8H74.2v-1.8c4.2-1.2,4.5-4.6,4.5-10.2V14.4c0-2.8-1-4.3-5.6-5.5V7.6l17.3-4v41.2
		c2-6.1,10.8-12.4,17.8-12.4c9,0,14.6,4.2,14.6,17.5v22.8c0,6.1,0.6,9.3,4.6,10.3V84.7L127.5,84.7z"/>
	<path class="st0" d="M212.6,71.4c-1.4,5.4-7.9,14.3-21.9,14.3c-14.1,0-24.1-12.4-24.1-26.3c0-15.9,10.5-27,25.2-27
		c14.6,0,22.6,8,22.6,25.6H179c0.6,12.9,6.8,18.9,14.8,20.1c6.4,1,14.8-2.1,17.1-7.4L212.6,71.4z M202.7,56.4
		c0-15.1-5.9-22.3-11.6-22.3c-6.4,0-12.2,9.9-12.2,22.3H202.7z"/>
	<path class="st0" d="M405.9,64.3h3.3c-0.2,0.4-0.5,1-0.8,1.8c-1.3,2.5-2.7,4.7-4.4,6.6c-7.4,9-17.1,13.6-29.4,13.6
		c-7.8,0-15.1-1.8-21.7-5.4c-6.9-3.8-12.2-8.5-15.9-14.5c-4-6.1-5.9-12.6-5.9-19.7c0-4.5,0.8-8.7,2.3-12.6c1.5-4.1,3.8-8,6.7-11.8
		c3.7-4,7.1-6.9,10.5-9.1c5.9-3.9,12.7-5.8,20.5-5.8c2.5,0,5.1,0.2,7.4,0.6c2,0.3,4.2,1,6.6,2.1c2.1,1.1,4.3,2.3,6.4,4
		c2.6,1.6,4.5,2.4,5.6,2.4c1.3,0,2.5-0.6,3.8-1.7c1.3-1.1,3-3.2,5.2-6.1h3.1v27h-3.3c-2.4-4.7-5.7-9-9.6-12.9
		c-3.4-3.5-7.4-6.6-11.8-9.1c-3.1-1.8-7.2-2.7-12.4-2.7c-5.2,0-9.2,1.3-12.5,4.2c-3.2,2.6-5.5,6.9-7,12.6s-2.3,12.2-2.3,19.8
		c0,5.3,0.4,9.8,1.2,13.8c0.5,2.1,0.9,3.8,1.3,5c0.4,1.2,0.9,2.6,1.8,4.5c0.8,1.8,2,3.4,3.3,4.9c1.3,1.3,3,2.5,5,3.7
		c3.8,1.9,8.1,2.8,13,2.8c2.9,0,6.2-0.4,9.9-1.3c3.1-1.1,6-2.3,8.5-3.9c2.5-1.6,5.2-3.8,7.6-6.4C402.8,69.4,404.2,67.4,405.9,64.3z"
		/>
	<path class="st0" d="M532.2,7.6c14.5,0,26.1,4.5,34.7,13.3c7.7,7.7,11.6,16.4,11.6,26.3c0.1,6.9-1.8,13.4-5.9,19.5
		c-4.2,6.1-9.7,11-16.7,14.5c-7.1,3.5-14.6,5.4-22.7,5.2c-8.2,0.1-15.9-1.5-22.9-5.2c-7.1-3.5-12.7-8.4-16.8-14.5
		c-4.2-6.1-6.1-12.6-6.1-19.7c-0.1-6.9,1.8-13.4,6-19.6c4.2-6.2,9.7-11.1,16.7-14.7C517,9.1,524.4,7.4,532.2,7.6z M533.7,10.8
		c-7,0-12.6,2.1-16.7,6.4c-6.8,6.9-10.2,16.8-10.2,29.9c0,11,2.3,19.6,7.1,26.3c4.5,6.2,10.3,9.5,17.6,9.8
		c7.9,0.4,15.8-3.2,20.5-9.6c4.9-6.6,7.3-15.6,7.3-27c0-7.5-1.3-14.1-3.9-19.8c-2.5-5.7-6.1-9.9-10.9-12.7
		C541.2,11.9,537.4,10.8,533.7,10.8z"/>
	<path class="st0" d="M743.7,81.6v3.2H700v-3.2h8.2c0.8,0,1.6-0.4,2.3-0.8c0.8-0.5,1.3-0.9,1.5-1.4c0.6-1.1,0.6-2.1,0.7-2.9
		c0.1-0.4-0.1-1.2-0.1-1.8c-0.1-0.6-0.2-1.3-0.5-2.1c-0.3-0.8-0.5-1.5-0.6-2c-0.2-0.5-0.5-1.2-0.8-2.1c-0.4-0.8-0.6-1.5-0.8-1.9
		c-0.2-0.4-2.3-4.5-2.5-5.2h-32c-1.2,2.6-2.1,4.9-2.9,6.4c-0.8,2-1.1,3.9-1,5.7c0.1,1.7,0.6,3.1,1.3,4.3c1.5,2.5,3.4,4,5.6,4h4v3.2
		h-30.7v-3.2h4.4c4,0,8-4.5,12.4-13c11.4-24.5,18.7-40,21.7-46.5c-0.9-1.7-1.5-3-2.1-3.8c-0.5-0.8-1.3-1.8-2.2-2.9
		c-0.9-1.1-2-2-3.1-2.5c-1.1-0.5-2.4-0.8-4-0.8H676V8.7h24.2l26.7,59.9c2.5,5.2,4.5,8.5,5.7,9.9c2,1.8,4.3,2.7,6.6,2.7L743.7,81.6
		L743.7,81.6z M691.6,25.9c-1.6,3.5-4.2,9-7.6,16.6c-3.4,7.5-5.9,12.7-7.1,15.5H706c-0.1-0.1-0.4-0.9-1.1-2.5
		c-0.6-1.5-1.3-3-1.8-4.3c-1.2-2.7-2.5-6-4.3-9.7c-1.6-3.8-3-6.9-4.2-9.3C693.4,29.7,692.5,27.6,691.6,25.9z"/>
	<path class="st0" d="M828.1,84.7h55.5v-3.2h-5.5c-0.2,0-0.4,0-0.6,0c-4.4-0.1-7.6-1-9.7-2.8c-2.2-1.8-4-5-4-9.4V11.9h2.7
		c15.7,0,25.4,7.5,28.7,22.5l0,0h4.8V8.7h-88.4v25.7h4.8l0,0c3.4-15,13-22.5,28.7-22.5h2.7v57.4c0,4.4-1.8,7.5-4,9.4
		c-2.1,1.8-5.4,2.7-9.7,2.8c-0.2,0-0.4,0-0.6,0H828L828.1,84.7L828.1,84.7z"/>
</g>
</svg>

