<?xml version="1.0" encoding="utf-8"?>
<!-- Generator: Adobe Illustrator 20.0.0, SVG Export Plug-In . SVG Version: 6.00 Build 0)  -->
<svg version="1.1" id="Layer_1" xmlns="http://www.w3.org/2000/svg" xmlns:xlink="http://www.w3.org/1999/xlink" x="0px" y="0px"
	 viewBox="0 0 900 900" style="enable-background:new 0 0 900 900;" xml:space="preserve">
<style type="text/css">
	.st0{fill-rule:evenodd;clip-rule:evenodd;fill:#1E1E1E;}
</style>
<g>
	<path class="st0" d="M450,0C201.5,0,0,201.4,0,450c0,190.6,118.5,353.4,285.8,419c-0.2-0.7-0.3-1.4-0.5-2
		c-2.6-11.1-2.9-22.7-3.4-34.1c-2-41.1,1.5-82.1,11.8-122c15.1-58.7,27.8-118.1,42.3-177c2.7-10.8,1.5-19.8-1.7-30.3
		c-15.1-48.5-11.2-95.7,19.6-136.9c14.8-19.8,38.6-27.7,64-24.2c23.9,3.2,38.2,18.1,44.3,41.1c5.2,19.5,2.3,38.7-2.1,57.8
		c-8.3,35.8-22.2,70.2-29.5,106.4c-2.9,14.4-2.4,32.8,1.4,47c15.5,57.6,92.6,45.6,129.2,17.9c24.9-18.9,42.7-46.5,54.5-75
		c13.9-33.4,19.5-65.4,19-101.1c-0.3-24.8-3.5-56.5-13.1-79.8c-23.6-56.9-77.5-96.6-137.9-105.2c-67.8-9.6-128.4,5-181.7,54.8
		c-58.9,55-75.3,164.9-27.5,232.8c6,8.6,5.7,14.4,3.7,24.1c-2.3,10.6-3.5,21.6-6.9,32c-3.1,9.4-6,20.3-17.3,21.1
		c-8.2,0.6-15.9-3.7-22.1-8.5c-13.5-10.3-24.5-25.5-31.7-40.8c-3.1-6.5-7.1-12.3-10.4-18.7c-20.5-40.3-30.5-85.1-26.2-130.3
		c1.8-18.7,4.9-37.5,9.9-55.6c19.1-67.8,66.1-123.6,127-158.3c17.1-9.7,35.8-17.9,54.5-23.9c65.1-21,137.4-18.3,201.8,4.2
		c47.5,16.6,91.9,42.8,123.4,82.8c51.8,65.8,66.2,142.3,50.3,224.3C718.6,554.5,692.3,610,644,654.1c-16.9,15.5-36.6,27.3-57.6,36.4
		c-10.8,4.6-21.9,8.7-33.1,12.1c-54.2,16.6-116.1,0.6-153.3-42.1c-3.5,15.2-14.2,53.4-16.1,60.9c-5.5,21.1-11.1,42.2-18.4,62.7
		c-11.1,31.7-25.9,62.7-44.7,90.5c-1.1,1.6-2.4,3.6-3.9,5.5c42.1,13,86.8,20,133.1,20c248.6,0,450-201.4,450-450
		C900,201.4,698.5,0,450,0z"/>
</g>
</svg>
